<svg xmlns="http://www.w3.org/2000/svg" width="70" height="70" viewBox="0 0 70 70">
  <defs>
    <style>
      .a {
        fill: #101a2c;
      }

      .b {
        fill: #010101;
      }

      .c {
        fill: #143558;
      }

      .d {
        fill: #d9232a;
      }
    </style>
  </defs>
  <g>
    <path class="a" d="M29.569,48.8513s-.035-.4912-.1053-2.0715c-.0223-.5-.0234-1.3509-.026-2.341a2.3142,2.3142,0,0,0,.8161-.5209,1.0658,1.0658,0,0,0,.1315-.79,1.1488,1.1488,0,0,1,.0531-.6315.6414.6414,0,0,0,.1311-.4744,7.3145,7.3145,0,0,1-.1052-1.1851c-.0259-.58,0-2.3177,0-2.3177a21.06,21.06,0,0,1-.6055-2.265c-.1579-.7635-.4214-2.4756-.4214-2.4756a3.1658,3.1658,0,0,1-.0631-.9285c.049.0281.19.0656.0721-.5375a12.2986,12.2986,0,0,0-.2812-1.2114c-.0526-.1756.1226-.2458.1579-.4037a2.7776,2.7776,0,0,0-.14-.8255c-.088-.4036.0526-3.7219.1053-4.8105a23.29,23.29,0,0,0,.0526-3.95,14.7859,14.7859,0,0,0-2.6161-3.3442c-.2369-.2372-.0263-.3425-.0263-.3425.0353-.14,1.1588,1.6855-.1846-.4916a4.3877,4.3877,0,0,1-.2985-1.37c-.0526-.1579.1759-.1225.1759-.1225a1,1,0,0,0,.6669-.1936c.14-.1229.1232-.2981.0879-.5616a.7914.7914,0,0,1,.2459-.5972.65.65,0,0,0,.14-.3861,1.925,1.925,0,0,1,.1406-.4213,2.6172,2.6172,0,0,0,.3157-1.2641,6.0055,6.0055,0,0,0-.1405-.8078,2.1445,2.1445,0,0,1,.1056-.4916,2.4514,2.4514,0,0,0-.035-.8428,2.8079,2.8079,0,0,1-.0706-1.0179,1.8806,1.8806,0,0,0-.07-.8427A6.47,6.47,0,0,0,25.847,6.4685c-2.5635-1.0183-4.0381.07-4.9162,1.4046a6.9751,6.9751,0,0,0-.8427,3.4412,14.1452,14.1452,0,0,0-.4567,3.3006c.1406.8078.1406.8428.1406.8428a.2568.2568,0,0,1,.4138.072.7215.7215,0,0,1-.1154-.0371c-.4232-.1881-.825.439-1.0355.4217a3.7937,3.7937,0,0,0-2.3527,1.2112c-1.1239,1.0712-1.5275,1.8963-1.299,2.5458a12.6849,12.6849,0,0,1,.0173,3.4235,15.2861,15.2861,0,0,1-.2808,2.37,4.5827,4.5827,0,0,0,.4913,3.3362.3835.3835,0,0,0,.07.1929,3.3766,3.3766,0,0,0,.7552,1.1765c.2808.14.5616.3157.7721.1052a5.4138,5.4138,0,0,1,.5259-.4433c.0425.0605.1171.1669.1769.25l.0066.0083c.0036.0253.0072.0508.0108.08a5.975,5.975,0,0,0,.7143.4722.9634.9634,0,0,1-.1351.2653,1.0427,1.0427,0,0,0-.2808.7017c0,.2127.14.345.0872.5638-.0259.0526-.0634.13-.1049.2184l-.0176.0256A11.1158,11.1158,0,0,0,17.1032,37.72c0,2.9492-.1052,8.2167-.1751,9.1294,0,0-.0707.4916.21.6672"/>
    <path class="b" d="M28.3225,32.5057c.0047.0268.01.053.0152.0793-.0159-.0493-.0325-.0976-.05-.1427Z"/>
    <path class="b" d="M28.1117,32.1193a4.7392,4.7392,0,0,1-.93-.0522C27.5148,32.0844,28.1117,32.1193,28.1117,32.1193Z"/>
    <g>
      <path class="a" d="M42.1526,13.5293c-.0112.0079-.0022.0273.0216.0551C42.1836,13.5336,42.1785,13.51,42.1526,13.5293Z"/>
      <path class="a" d="M53.9071,36.257c-.913-2.0016-1.4046-2.4583-1.4749-2.8444s-.2458-1.0182-.2458-1.0182l-.044-.0354-.0087-.0526c.2372.1579.2635.132.3162.2635s-.1053.4214,0,.474.6059.3424.7638-.3161-.1846-1.1848-.7638-1.817-.4477-.6849-.4214-1.0536a2.87,2.87,0,0,1,.1579-.79l.0086-.0112a.361.361,0,0,0,.0764-.0072,2.3094,2.3094,0,0,0,.863.2818,6.0154,6.0154,0,0,1,1.58.0264,4.8247,4.8247,0,0,0,1.317.6845,10.0015,10.0015,0,0,0,1.817-.79,1.8686,1.8686,0,0,0,.7375-1.08c.0263-.3424-.9216-2.4755-1.08-3.0548s.1052-.6059-.58-1.6065-.9747-1.6854-1.3167-2.265a3.6438,3.6438,0,0,1-.527-1.1059,9.111,9.111,0,0,0-.5792-1.1062c-.1316-.29-.079-.4477-.2632-.8427a3.397,3.397,0,0,0-1.8963-1.58c-1.3167-.6056-2.2387-.29-2.7654-.553s-1.0006-.7111-1.3693-.869c-.2927-.1258-.4686-.1521-.6084-.2368a.3166.3166,0,0,0-.1027-.0793,6.8744,6.8744,0,0,1-.5-1.08c-.1315-.2631-.2108-.4477-.2108-.4477a1.0843,1.0843,0,0,1-.3425.8954c-.284.2227-.6195.5879-.8737.8308a2.5313,2.5313,0,0,1,.47-.5147,3.2189,3.2189,0,0,0,.6671-.8078,10.06,10.06,0,0,1-.07-1.44,7.3343,7.3343,0,0,0,.07-.8074c0-.3161-.07-.5969.07-.7728s.176-.3511.4214-.6668a2.6635,2.6635,0,0,0,.2808-1.58c-.1755-.2285-.3511.035-.3511-.1052a13.8649,13.8649,0,0,0-.07-2.6688,9.5531,9.5531,0,0,0-1.8964-1.8609A3.236,3.236,0,0,0,44.04,3.706a3.1231,3.1231,0,0,0-2.0715.7371c-.2462.3864-.948.913-1.0536,1.1942a5.43,5.43,0,0,0,0,2.6334l.07.3864c-.1406.0349-.2109-.2109-.3864-.0349-.1889.1888,0,1.0532.1052,1.3343a1.9973,1.9973,0,0,0,.7026.8074c.21.1053.21.2808.2458.4916a5.73,5.73,0,0,0,.6672,2.1069,1.9085,1.9085,0,0,1,.07.386c0,.0123.0152.031.0423.0548a1.8519,1.8519,0,0,1-.2578-.2188c-.0378.2109-.3215.8972-.3637,1.0244-.053.1582-.8957.2635-1.1066.58s-2.1064.9484-3.1074,1.6855a4.6656,4.6656,0,0,0-1.1062.8953,3.0457,3.0457,0,0,0-.17.7837c-.7292.02-1.1729.0327-1.1729.0327a.3848.3848,0,0,0-.29.4477l.1845,8.6118a1.9564,1.9564,0,0,1-.21.4214c-.1057.1315-.1583.2635-.0531.3687a.3817.3817,0,0,0,.29.079l1.5122.032c.0057.1352.0115.2243.0154.2578a11.7142,11.7142,0,0,0,.1842,1.3433c.1053.4211.079.6582.4477.974s.7375.79,1.0273,1.0532.4477.2639.4739.3428a2.2687,2.2687,0,0,0,.948.4477.9291.9291,0,0,0,.2779-.0516,1.4791,1.4791,0,0,0-.5147,1.0258c.07.562-.3514,1.0886-.7728,2.1069s-.4916,4.1787-.4916,5.8994a5.563,5.563,0,0,1,.3161,2.1768s.1056,4.0734.4567,6.25a37.4481,37.4481,0,0,1,.5266,3.7922,7.01,7.01,0,0,0,.1052,1.6505c.1056.1407.1756.3511.07.8777m5.6183-2.2823c.07-1.3859.4394-5.3011.8446-8.131.2306-1.2886.4952-2.5451.568-2.8868a2.3977,2.3977,0,0,1-.0782.23c.0281-.0977.0559-.1824.0829-.2527l-.0047.0231.009-.0343c.0062-.0147.0119-.03.018-.0439h.0087l-.0011,0,.0058,0h-.0047c.03.014.1474.1769.4408,1.6361.1716,1.5578.6474,4.64.78,5.0707.0768.25.2591.7433.4257,1.34.0158.067.0317.1355.0483.2047.0785.3359.1676.8139.26,1.3668M51.6071,31.885c.0984,0,.2664.2311.4819.39L51.66,31.973s-.1431.009-.3846.0238c-.199.0115-.4661.027-.7826.0436C51.1432,31.9593,51.54,31.885,51.6071,31.885ZM45.304,15.2937l-.0155.0075a1.6349,1.6349,0,0,0-.3875.0235l-.0094-.0047s-.0219-.0188-.0713-.0548C44.9421,15.2756,45.1775,15.2937,45.304,15.2937Zm-.8986-.2858c-.1006-.0563-.2181-.119-.3565-.1883A13.5631,13.5631,0,0,1,42.6,13.9254C43.0036,14.19,43.891,14.6719,44.4054,15.0079Z"/>
    </g>
    <polygon class="c" points="69.657 15.188 23.65 44.861 37.398 57.656 69.657 40.641 69.657 15.188"/>
    <polygon class="c" points="0.343 20.36 0.343 36.83 15.756 49.761 28.959 41.322 0.343 20.36"/>
    <polygon class="d" points="12.897 51.258 50.251 27.704 51.69 37.919 33.042 49.217 40.801 54.797 52.507 47.039 57.135 53.028 37.126 66.297 12.897 51.258"/>
  </g>
</svg>
