<svg xmlns="http://www.w3.org/2000/svg" width="68.8897" height="68.3777" viewBox="0 0 68.8897 68.3777"><ellipse cx="35.3213" cy="34.9554" rx="34.1134" ry="34.1374" transform="translate(-8.4444 9.6019) rotate(-15.1063)" style="fill:#fff"/><ellipse cx="34.1134" cy="34.2403" rx="34.1134" ry="34.1374" style="fill:#094120"/><path d="M40.6988,49.5743c-.7921-.3185-1.5361-.7356-2.2913-1.1282a103.3536,103.3536,0,0,1-12.3-7.3355c-.9586-.6814-1.893-1.3952-2.7861-2.1609a14.3011,14.3011,0,0,1-4.5846-7.9178,18.3086,18.3086,0,0,1-.4622-3.8237c-.0014-.0838,0-.1676,0-.2724.1473.0758.17.2043.2247.3047.9823,1.8014,2.0538,3.5482,3.154,5.28a22.5029,22.5029,0,0,0,6.2612,6.4421,117.9616,117.9616,0,0,0,13.6282,8.0264,3.3505,3.3505,0,0,1,.8321.461.3933.3933,0,0,1-.2075.2031A2.8017,2.8017,0,0,0,40.92,49.18C40.87,49.32,40.8449,49.4839,40.6988,49.5743Z" transform="translate(-0.5551 -0.8111)" style="fill:#fff"/><path d="M50.7962,26.9485a9.1353,9.1353,0,0,1-.0413,1.9584,16.4992,16.4992,0,0,1-2.5227,7.317,15.5921,15.5921,0,0,1-3.6842,3.76,71.8177,71.8177,0,0,1-6.7037,4.508c-.1148.0693-.2121.1312-.3625.0445-.8356-.4811-1.6785-.95-2.518-1.4238-.0261-.0148-.0426-.0465-.0805-.09.3583-.2145.7078-.4217,1.0553-.632a64.1384,64.1384,0,0,0,7.797-5.3773,16.4439,16.4439,0,0,0,2.7236-3.0407,60.8824,60.8824,0,0,0,4.1556-6.6911C50.6757,27.171,50.7357,27.06,50.7962,26.9485Z" transform="translate(-0.5551 -0.8111)" style="fill:#fff"/><path d="M29.1191,25.2777A6.1193,6.1193,0,0,0,35.3558,26.7a6.0254,6.0254,0,0,0,4.3335-4.7791,6.236,6.236,0,0,0-2.1528-6.2115c.1341-.0583.2481.0307.3634.078a6.9505,6.9505,0,1,1-8.8627,9.5642C29.0245,25.2823,29.0543,25.2605,29.1191,25.2777Z" transform="translate(-0.5551 -0.8111)" style="fill:#fff"/><path d="M26.846,47.5123c-.1513-.2156.09-.1828.1584-.219q1.6311-.86,3.2725-1.7012c.4118-.2116.8092-.62,1.2318-.593.4066.0263.79.4084,1.1838.634.5176.2965,1.0353.5928,1.5948.9132-.7.38-1.3552.7442-2.0187,1.0938-1.2631.6655-2.5166,1.35-3.8182,1.94-.1107-.0366-.1369-.1376-.17-.23a2.9012,2.9012,0,0,0-1.3343-1.7108A.1966.1966,0,0,1,26.846,47.5123Z" transform="translate(-0.5551 -0.8111)" style="fill:#fff"/><path d="M32.284,21.3477c-.1984-.3386-.48-.7069-.6471-1.06a.44.44,0,0,0-.6212-.2658c-.369.1106-.7521.174-1.2364.2817.35-.3934.6257-.7257.9266-1.0334a.3254.3254,0,0,0,.0485-.483c-.2339-.3583-.4371-.7366-.7014-1.1893.4937.2141.9077.3818,1.31.5738a.2776.2776,0,0,0,.394-.0871c.288-.343.5927-.6718.9447-1.067-.0506.5435-.0846.9936-.1382,1.4414a.2622.2622,0,0,0,.1947.3222,8.9971,8.9971,0,0,1,1.2237.5964c-.3761.083-.7489.1918-1.1294.2413a.4616.4616,0,0,0-.4664.5314c-.0067.3753-.0677.8225-.1022,1.1974Z" transform="translate(-0.5551 -0.8111)" style="fill:#fff"/><path d="M49.2957,55.5845c-.6338-.0156-.8461-.191-.95-.7038-.0219-.1085-.0439-.2176-.0553-.3275a2.9811,2.9811,0,0,0-1.5026-2.3417,8.9883,8.9883,0,0,0-2.7514-1.0446,1.32,1.32,0,0,0-.9155.2252,2.9913,2.9913,0,0,0-1.0235.9806c-.252.3646-.488.74-.7355,1.1078a1.7033,1.7033,0,0,1-.4977.5292.4626.4626,0,0,1-.5331.0258c-.1716-.1215-.0862-.3021-.0416-.4584A7.3009,7.3009,0,0,1,41.0611,52c.2246-.3947.454-.7867.6792-1.1811a.3325.3325,0,0,0-.1133-.5108,2.5349,2.5349,0,0,1-.2339-.1865c-.48-.3829-.4722-.38-.2482-.9661a2.4639,2.4639,0,0,1,1.497-1.5051.673.673,0,0,0,.3591-.3186,21.7265,21.7265,0,0,1,1.6422-2.4589,7.1494,7.1494,0,0,1,.5155-.5635c.0742-.0752.1721-.1939.2784-.1376.1266.067.0757.2266.0451.3331a7.6915,7.6915,0,0,1-.2832.8141c-.1731.4195-.37.8292-.5441,1.2484a3.5821,3.5821,0,0,0-.2441.8262.8234.8234,0,0,0,.3682.89c.9358.6341,1.8664,1.276,2.7971,1.9175a17.4678,17.4678,0,0,1,2.0994,1.6306,5.329,5.329,0,0,1,1.154,1.45,1.2828,1.2828,0,0,1-.242,1.6134A2.1261,2.1261,0,0,1,49.2957,55.5845Z" transform="translate(-0.5551 -0.8111)" style="fill:#ffd42c"/><path d="M18.1311,53.9907a1.57,1.57,0,0,1,.252-.8493,6.966,6.966,0,0,1,1.7527-1.8922c1.1767-.9466,2.4746-1.7207,3.7035-2.5931.1446-.1027.2895-.205.432-.3105a.8974.8974,0,0,0,.4124-1.1736,10.1435,10.1435,0,0,0-.609-1.5427,4.6154,4.6154,0,0,1-.4252-1.1835c-.0134-.0945-.0517-.2217.0458-.275.1-.0546.1834.0507.2563.1125a5.3784,5.3784,0,0,1,.8246.9541,24.17,24.17,0,0,1,1.3572,2.0906.7091.7091,0,0,0,.39.33,2.7166,2.7166,0,0,1,1.64,1.96.2045.2045,0,0,1-.0987.25c-.1928.1493-.377.31-.5744.4529a.3122.3122,0,0,0-.1094.4579q.3184.564.64,1.126a8.4354,8.4354,0,0,1,.7937,1.5681c.06.1846.2093.4217-.0316.5712-.2424.15-.47.0241-.6617-.15a3.6715,3.6715,0,0,1-.581-.7663,9.9222,9.9222,0,0,0-.76-1.09,2.7224,2.7224,0,0,0-.815-.6737,1.4825,1.4825,0,0,0-1.1495-.1385,10.0641,10.0641,0,0,0-2.4028.9462,2.9732,2.9732,0,0,0-1.5611,2.3729c-.0063.0659-.0238.1308-.0356.1962a.885.885,0,0,1-1.3478.7506,1.9513,1.9513,0,0,1-1.3239-1.3373A.8589.8589,0,0,1,18.1311,53.9907Z" transform="translate(-0.5551 -0.8111)" style="fill:#ffd42c"/></svg>